<?xml version="1.0" standalone="no"?>
<!DOCTYPE svg PUBLIC "-//W3C//DTD SVG 20010904//EN"
 "http://www.w3.org/TR/2001/REC-SVG-20010904/DTD/svg10.dtd">
<svg version="1.0" xmlns="http://www.w3.org/2000/svg"
 width="428.000000pt" height="400.000000pt" viewBox="0 0 428.000000 400.000000"
 preserveAspectRatio="xMidYMid meet">

<g transform="translate(0.000000,400.000000) scale(0.100000,-0.100000)"
fill="#000000" stroke="none">
<path d="M2093 3540 c-36 -14 -27 -18 15 -7 41 11 99 4 125 -16 15 -11 14 -17
-13 -72 -33 -66 -36 -110 -18 -260 12 -99 18 -110 60 -112 18 -1 27 1 21 3 -7
3 -13 12 -13 19 0 8 -9 17 -20 20 -11 3 -20 14 -20 24 0 10 -3 21 -7 25 -5 4
-9 44 -10 89 -2 90 22 183 59 224 22 23 18 56 -5 47 -7 -2 -27 2 -43 11 -32
16 -96 19 -131 5z"/>
<path d="M2024 3515 c-3 -8 6 -26 20 -41 14 -16 31 -48 37 -73 17 -65 23 -211
10 -224 -6 -6 -11 -22 -11 -36 0 -13 -3 -21 -7 -18 -5 6 -53 -37 -53 -49 0 -2
13 -4 29 -4 22 0 31 6 39 28 16 41 23 88 28 183 4 71 1 97 -16 142 -11 30 -27
61 -35 67 -8 7 -13 16 -10 20 3 4 -2 11 -10 14 -9 3 -18 -1 -21 -9z"/>
<path d="M1507 3033 c-3 -10 -8 -40 -12 -68 -3 -27 -8 -62 -11 -77 -8 -39 16
-36 63 7 21 19 42 35 47 35 6 0 20 10 34 23 21 20 36 22 140 25 64 2 140 1
169 -3 47 -6 54 -10 60 -33 3 -15 9 -29 14 -32 8 -5 12 -51 10 -120 -1 -27 -5
-40 -9 -32 -7 10 -13 8 -26 -7 -24 -27 -17 -56 14 -56 23 0 26 6 41 80 14 70
14 87 1 135 -7 30 -23 67 -34 82 l-19 28 23 0 c13 0 29 4 36 9 19 12 -138 21
-354 21 -165 0 -183 -2 -187 -17z m89 -41 c-13 -13 -16 -13 -30 1 -15 14 -13
16 15 15 27 -1 29 -3 15 -16z m-51 -2 c3 -5 1 -10 -4 -10 -6 0 -11 5 -11 10 0
6 2 10 4 10 3 0 8 -4 11 -10z"/>
<path d="M2395 3040 c-141 -5 -145 -12 -10 -15 90 -2 90 -8 1 -14 -79 -6 -80
-7 -100 -41 -18 -29 -21 -52 -21 -135 1 -118 15 -158 53 -144 29 11 28 24 -8
59 -25 24 -30 37 -30 76 0 25 6 60 14 77 8 18 16 40 19 49 8 23 68 30 218 26
117 -3 126 -4 160 -30 20 -16 39 -28 42 -28 4 0 16 -8 26 -17 34 -31 50 -43
57 -43 6 0 3 38 -12 147 l-6 42 -127 -2 c-69 -1 -193 -4 -276 -7z m125 -20
c11 -7 7 -10 -17 -10 -18 0 -33 5 -33 10 0 13 30 13 50 0z m250 -27 c0 -12 5
-23 11 -25 6 -2 9 -14 7 -26 -3 -20 -7 -18 -58 28 l-55 50 47 -2 c42 -3 48 -6
48 -25z"/>
<path d="M2133 3002 c-16 -10 -17 -872 -1 -872 5 0 6 -9 3 -22 -6 -16 -4 -20
9 -15 8 3 19 1 23 -6 18 -30 24 80 23 478 -1 432 -2 445 -35 445 -5 0 -16 -4
-22 -8z"/>
<path d="M2060 2936 c0 -9 5 -16 10 -16 6 0 10 4 10 9 0 6 -4 13 -10 16 -5 3
-10 -1 -10 -9z"/>
<path d="M1840 2792 c0 -40 46 -137 93 -195 34 -42 42 -64 56 -167 7 -55 7
-54 12 35 l4 90 -36 35 c-32 32 -59 70 -59 84 0 3 18 -4 40 -15 21 -11 45 -17
51 -13 8 4 -3 13 -28 23 -48 20 -93 54 -93 72 -1 8 -9 30 -20 49 l-19 35 -1
-33z"/>
<path d="M2451 2780 c-24 -64 -28 -75 -40 -103 -6 -15 -31 -50 -57 -77 l-45
-48 -4 -404 c-2 -221 -8 -423 -14 -448 -12 -58 -74 -229 -106 -296 -14 -28
-25 -56 -25 -62 0 -90 -146 305 -154 416 -6 86 -9 92 -15 37 -3 -27 -3 -72 1
-100 8 -56 55 -205 69 -220 5 -5 9 -15 9 -22 0 -20 71 -163 81 -163 5 0 9 9 9
19 0 11 4 21 8 23 10 4 92 170 92 186 0 7 4 20 9 30 5 9 18 42 28 72 16 49 18
105 23 480 3 240 9 432 14 440 6 8 28 38 49 65 50 63 89 148 85 183 -3 27 -3
26 -17 -8z"/>
<path d="M2318 2653 c6 -2 18 -2 25 0 6 3 1 5 -13 5 -14 0 -19 -2 -12 -5z"/>
<path d="M1991 2310 c-3 -77 -3 -225 0 -355 2 -97 3 -103 9 -55 11 73 11 363
1 420 l-8 45 -2 -55z"/>
<path d="M2195 1730 c3 -5 8 -10 11 -10 2 0 4 5 4 10 0 6 -5 10 -11 10 -5 0
-7 -4 -4 -10z"/>
<path d="M628 663 c12 -2 30 -2 40 0 9 3 -1 5 -23 4 -22 0 -30 -2 -17 -4z"/>
<path d="M718 663 c12 -2 30 -2 40 0 9 3 -1 5 -23 4 -22 0 -30 -2 -17 -4z"/>
</g>
</svg>
